<?xml version="1.0" encoding="UTF-8" standalone="no"?>
<!-- Created with Inkscape (http://www.inkscape.org/) -->

<svg
   xmlns:dc="http://purl.org/dc/elements/1.1/"
   xmlns:cc="http://creativecommons.org/ns#"
   xmlns:rdf="http://www.w3.org/1999/02/22-rdf-syntax-ns#"
   xmlns:svg="http://www.w3.org/2000/svg"
   xmlns="http://www.w3.org/2000/svg"
   xmlns:sodipodi="http://sodipodi.sourceforge.net/DTD/sodipodi-0.dtd"
   xmlns:inkscape="http://www.inkscape.org/namespaces/inkscape"
   version="1.1"
   width="1538"
   height="530"
   id="svg2"
   inkscape:version="0.48.4 r9939"
   sodipodi:docname="republique_francaise.svg">
  <metadata
     id="metadata11">
    <rdf:RDF>
      <cc:Work
         rdf:about="">
        <dc:format>image/svg+xml</dc:format>
        <dc:type
           rdf:resource="http://purl.org/dc/dcmitype/StillImage" />
        <dc:title></dc:title>
      </cc:Work>
    </rdf:RDF>
  </metadata>
  <sodipodi:namedview
     pagecolor="#ffffff"
     bordercolor="#666666"
     borderopacity="1"
     objecttolerance="10"
     gridtolerance="10"
     guidetolerance="10"
     inkscape:pageopacity="0"
     inkscape:pageshadow="2"
     inkscape:window-width="1615"
     inkscape:window-height="1026"
     id="namedview9"
     showgrid="false"
     fit-margin-top="0"
     fit-margin-left="0"
     fit-margin-right="0"
     fit-margin-bottom="0"
     inkscape:zoom="0.70710678"
     inkscape:cx="677.23409"
     inkscape:cy="666.7217"
     inkscape:window-x="65"
     inkscape:window-y="24"
     inkscape:window-maximized="1"
     inkscape:current-layer="svg2" />
  <defs
     id="defs4" />
  <rect
     width="1538"
     height="520"
     x="0"
     y="0"
     id="rect6"
     style="fill:#ffffff;stroke:none" />
  <path
     d="m 880.09985,520 2.3331,-6.03323 c 3.95348,-10.89901 8.05377,-19.21715 13.97126,-28.34278 6.26858,-9.66712 20.06674,-23.90682 25.80652,-26.63237 7.05438,-3.34973 15.82406,-4.52911 26.66883,-3.5865 9.31267,0.80945 37.92569,5.4882 49.47174,8.08952 8.7875,1.97982 21.6545,2.16927 27.7091,0.40796 11.6659,-3.39365 18.5772,-9.95372 21.8571,-20.74657 2.5161,-8.27952 2.4921,-15.8043 -0.066,-20.82255 -3.4364,-6.74046 -2.8513,-8.49357 5.5,-16.47939 4.125,-3.94445 7.5055,-7.59154 7.5123,-8.10463 0.035,-2.66984 -5.6801,-13.39015 -7.1515,-13.41431 -0.9016,-0.0148 -2.6827,-0.87243 -3.9581,-1.90585 l -2.3189,-1.87896 4.9581,-2.53468 c 6.77,-3.46098 11.7914,-8.84299 11.7914,-12.63824 0,-1.6396 -1.4264,-5.65909 -3.1697,-8.93218 -3.3456,-6.28111 -4.2406,-12.28266 -2.357,-15.80465 1.2446,-2.32696 3.3908,-3.30555 13.9333,-6.35291 8.859,-2.56071 12.0619,-5.15649 13.3248,-10.79924 1.0805,-4.82725 0.5496,-7.92986 -2.3492,-13.72965 -2.3601,-4.72215 -17.7305,-28.26979 -22.2077,-34.02258 -6.0165,-7.73056 -13.3458,-21.08638 -15.5135,-28.26967 -2.1368,-7.08067 -2.1511,-7.48201 -0.592,-16.6349 3.2959,-19.34875 1.3687,-35.39057 -8.0096,-66.66945 -6.9698,-23.24633 -8.8415,-28.88965 -11.024,-33.23882 -3.9459,-7.86291 -3.4187,-9.70362 4.6768,-16.33124 3.8749,-3.17235 7.4749,-6.57108 7.9999,-7.55272 2.4446,-4.5707 -0.2875,-13.377646 -4.9194,-15.858232 -2.9398,-1.574424 -4.5763,-0.493557 -7.561,4.994044 -2.2615,4.157798 -3.148,4.945138 -5.5683,4.945138 -3.9396,0 -4.6304,-1.65254 -2.1144,-5.057933 2.9334,-3.970264 2.7011,-4.606907 -1.9069,-5.225377 -3.4492,-0.462947 -5.2724,-1.810802 -12.75,-9.425825 -10.02517,-10.209413 -16.75985,-14.914201 -30.18512,-21.087042 -6.15448,-2.829758 -8.29797,-4.169127 -6.04008,-3.774095 1.925,0.336788 8.73118,0.874948 15.12496,1.195909 18.55284,0.931338 23.06254,-1.519787 27.38624,-14.885093 2.9356,-9.074438 4.3436,-13.271221 -2.3926,-19.606867 L 983.24593,0 1538,0 l 0,520 -657.90015,0 z"
     id="path10"
     style="fill:#e2011c;fill-opacity:1;stroke:none"
     inkscape:connector-curvature="0" />
  <path
     d="m 407.03269,520 c -4.02615,-0.42259 -7.51712,-0.60622 -7.75773,-0.84698 -0.42336,-0.42364 4.12391,-3.34687 24.94924,-16.03873 6.67974,-4.07092 9.42789,-6.25303 8.49997,-6.74922 -0.7542,-0.40329 -6.58485,-1.04259 -12.95702,-1.42068 -9.46685,-0.56173 -12.21018,-0.40054 -14.99996,0.88133 -1.8778,0.86282 -9.37176,3.13221 -16.65323,5.04309 -18.05961,4.73937 -24.1369,7.99312 -29.93569,16.02741 L 356.01156,520 0,520 0,0 706.33891,0 692.65306,8.933712 c -7.53449,3.740681 -16.29044,8.936027 -19.4577,11.545213 -10.7438,8.850784 -25.21121,28.98535 -28.82375,40.114545 -1.32779,4.090519 -2.53322,5.623795 -6.60728,8.404319 -6.21686,4.242955 -13.6638,12.334344 -19.83005,21.546106 -8.37291,12.508265 -24.33208,40.697605 -27.46783,48.517565 -4.86453,12.13121 -4.42262,21.36873 2.75656,57.6223 3.16062,15.96059 6.58057,32.17135 7.59988,36.0239 1.01931,3.85256 2.13494,10.38189 2.47916,14.50963 0.61462,7.36995 1.09369,8.96549 5.40827,18.01195 1.1812,2.47664 2.14638,5.2872 2.14485,6.24567 -0.002,0.95848 0.89722,2.30511 1.99722,2.99253 1.14082,0.71294 1.99999,2.33358 1.99999,3.77259 0,1.73352 2.27753,5.02352 7.28009,10.51643 11.44468,12.56651 19.71983,24.34673 19.71983,28.07247 0,3.0599 -4.48855,3.8507 -11.72032,2.06489 -8.45242,-2.08723 -15.36663,-6.59548 -26.02957,-16.97197 -4.53749,-4.41559 -8.24997,-7.38428 -8.24997,-6.59707 0,0.7872 3.11105,4.89259 6.91344,9.12308 7.56226,8.41369 8.74836,10.70932 7.11305,13.76696 -1.43059,2.67488 -4.91133,3.4538 -9.62005,2.15279 -5.43384,-1.50135 -8.61786,0.59145 -7.72169,5.07533 0.54979,2.75079 0.39895,3.0744 -1.15493,2.47771 -3.0718,-1.17954 -9.79381,-2.53068 -15.83839,-3.18353 -5.55261,-0.59972 -5.96357,-0.84321 -9.32486,-5.52502 -2.54721,-3.54788 -4.5291,-5.18205 -7.19136,-5.92967 -9.92267,-2.78646 -34.60352,-7.08158 -51.17496,-8.90581 -29.1283,-3.20652 -36.14432,-3.45826 -50.09929,-1.79767 -10.71653,1.27523 -13.63063,2.02362 -19.49994,5.00792 -10.39013,5.28296 -28.40049,21.83684 -28.40049,26.10378 0,2.00179 3.9668,1.29557 8.49997,-1.51326 13.75675,-8.52393 60.8791,-20.55415 83.99976,-21.44495 11.45713,-0.44142 10.83603,0.10735 -2.91057,2.57163 -3.80081,0.68134 -12.80078,2.98711 -19.99994,5.12393 -7.19916,2.13682 -19.61437,5.42948 -27.58934,7.31702 -7.97498,1.88754 -16.97495,4.32093 -19.99995,5.40752 l -5.49998,1.97563 8.49998,0.0929 c 43.31042,0.47328 92.68111,14.22308 112.77337,31.40751 8.64519,7.39401 11.81112,8.29136 24.52784,6.95217 17.42771,-1.8353 39.9852,-10.15555 49.87766,-18.3972 4.29288,-3.5765 7.82427,-4.99845 7.81805,-3.14801 -0.011,3.26851 -5.69775,20.83949 -8.15546,25.19875 -2.7399,4.8598 -2.89551,5.55935 -1.46882,6.60326 0.87765,0.64219 1.34382,1.4197 1.03592,1.7278 -0.3079,0.30811 0.37409,0.8568 1.51554,1.21932 3.28187,1.04232 2.456,2.04962 -2.7818,3.39292 -5.10624,1.30957 -9.14281,3.60246 -9.14281,5.1934 0,0.51916 0.70156,0.94392 1.55902,0.94392 2.56836,0 0.65173,1.79599 -2.70362,2.53344 -2.29738,0.50493 -2.75645,0.91755 -1.73853,1.56267 0.99787,0.6324 1.03495,0.88083 0.13314,0.89189 -0.6875,0.008 -1.25,1.03115 -1.25,2.27271 0,1.54581 -0.94566,2.67626 -2.99999,3.5862 -5.00685,2.21772 -3.60329,3.41542 3.24999,2.7733 3.43749,-0.32208 5.57499,-0.31888 4.74999,0.007 -0.825,0.326 -6.44998,2.87226 -12.49996,5.65837 -6.04999,2.7861 -13.92496,6.09344 -17.49995,7.34964 -4.0469,1.42203 -6.6317,2.91965 -6.84898,3.96831 -0.34903,1.68455 1.5299,1.62864 6.25608,-0.18617 0.87608,-0.33641 1.58193,-0.22576 1.56854,0.2459 -0.0134,0.47166 -10.42862,6.48629 -23.14495,13.36585 -12.71632,6.87957 -24.61534,13.97177 -26.44224,15.76046 -1.8269,1.78869 -4.1644,3.25216 -5.19445,3.25216 -1.03648,0 -2.39106,1.13818 -3.03332,2.54874 -1.94236,4.26584 -1.54053,4.7847 3.08947,3.98931 6.87876,-1.18172 10.03143,-1.11665 10.48813,0.21643 0.24706,0.72119 -0.4018,1.25083 -1.53238,1.25083 -1.07848,0 -2.49891,0.64872 -3.1565,1.4416 -0.6576,0.79287 -2.39411,1.5809 -3.85893,1.75116 -1.70429,0.19809 -3.38832,1.45639 -4.6768,3.49447 -1.10743,1.7517 -2.9135,3.41625 -4.0135,3.699 -1.1,0.28275 0.475,0.32991 3.49999,0.10479 44.97975,-3.34738 53.35983,-5.01303 71.49979,-14.21143 15.47552,-7.84732 31.5404,-19.51294 42.96858,-31.20192 3.28277,-3.35769 6.32026,-6.10489 6.74998,-6.10489 1.55391,0 0.71091,5.61292 -1.58351,10.54343 -3.97092,8.53315 -12.30262,16.39355 -29.42819,27.76358 -8.63877,5.73546 -17.95686,11.1371 -20.70685,12.00365 -8.5921,2.70744 -22.46289,5.59149 -37.00425,7.69404 -47.37317,6.84973 -65.50213,12.04522 -83.45993,23.91834 -3.00547,1.98713 -6.1604,3.49498 -7.01096,3.3508 -0.85055,-0.1442 -3.11651,1.08049 -5.03546,2.72153 -5.3972,4.61553 -1.48698,3.83475 9.70697,-1.93827 11.47109,-5.91595 16.84901,-6.84823 7.80396,-1.35284 C 468.26197,515.77736 459.80757,520 451.53049,520 l -44.4978,0 z m -58.84628,-58.00609 c 1.79797,-0.75174 7.74599,-4.08411 13.21785,-7.40528 5.47185,-3.32116 11.97381,-6.95723 14.4488,-8.08015 2.475,-1.12292 9.44998,-4.27567 15.49996,-7.0061 12.68061,-5.72291 31.28983,-11.12284 32.36003,-9.39006 0.37595,0.60869 3.1487,1.27905 6.16169,1.4897 4.21712,0.29483 4.96023,0.5659 3.22816,1.17758 -1.2375,0.43703 -2.24999,1.19238 -2.24999,1.67856 0,1.81029 9.35862,1.26723 13.29885,-0.77171 1.54474,-0.79935 5.03442,-1.71715 7.75485,-2.03956 3.38239,-0.40086 4.94622,-1.0445 4.94622,-2.03577 0,-1.13141 0.85891,-1.30435 3.91331,-0.78797 4.2029,0.71054 13.24268,-0.99947 37.58657,-7.11004 16.48649,-4.13829 28.97302,-8.30307 39.93986,-13.3216 l 7.93994,-3.63339 -7.93994,-5.08832 c -19.35229,-12.40197 -38.78489,-20.01764 -81.43974,-31.91638 -7.42498,-2.07122 -13.94996,-4.21327 -14.49996,-4.7601 -0.66328,-0.65946 -0.32657,-0.75258 1,-0.27654 4.25887,1.52827 7.49998,1.8212 7.49998,0.67785 0,-1.48302 -3.22052,-2.67855 -9.54779,-3.54438 -5.78697,-0.79189 -9.52247,-2.51945 -5.50217,-2.5446 6.22227,-0.0389 -4.4744,-3.98443 -16.44995,-6.06765 -8.86581,-1.54226 -9.37649,-1.87234 -5.67342,-3.66698 3.22713,-1.56399 6.69815,-7.48229 5.78494,-9.86367 -0.77521,-2.0215 -1.7421,-1.813 -6.5374,1.40972 -9.24526,6.21332 -17.7253,16.3881 -22.49087,26.98568 -2.71847,6.04528 -1.77722,6.59994 12.21487,7.1982 11.45756,0.48989 11.63925,0.534 8.7019,2.11232 -1.64999,0.8866 -4.95972,1.91265 -7.35495,2.28013 -8.13505,1.24804 -12.65372,5.11052 -8.62085,7.36893 1.19765,0.67068 0.7224,1.23611 -2.21844,2.63944 -3.29639,1.57298 -3.5282,1.90597 -1.94436,2.79293 0.98904,0.55387 3.86485,0.84255 6.39069,0.64152 3.51035,-0.27937 5.11336,0.0988 6.80324,1.60504 l 2.21082,1.97054 -4.43631,2.81529 c -2.43996,1.54841 -5.19984,4.25903 -6.13304,6.02359 -0.93321,1.76456 -4.28424,5.96278 -7.44673,9.32937 -3.16249,3.36659 -5.74999,6.84873 -5.74999,7.73808 0,0.88935 -4.61248,5.3091 -10.24997,9.82165 -15.16084,12.13559 -21.74993,18.80571 -21.74993,22.01738 0,1.69941 -0.85669,3.22976 -2.35969,4.21521 -4.73298,3.10324 -7.20307,6.68833 -4.60817,6.68833 0.56765,0 2.50317,-0.61506 4.30113,-1.36679 z m 116.979,-11.69247 c 3.74691,-0.50098 8.08574,-1.66347 9.64183,-2.58329 l 2.82926,-1.6724 -4.82545,-2.40622 -4.82546,-2.40623 -4.81638,1.95233 c -2.64901,1.07378 -6.31721,2.52057 -8.15154,3.21509 -7.37774,2.79337 -8.34049,6.54833 -1.41483,5.51815 2.61249,-0.3886 7.81565,-1.11645 11.56257,-1.61743 z M 295.85329,404.79772 c 22.28474,-23.31593 38.01051,-37.14787 57.97156,-50.9901 6.78338,-4.70402 11.56186,-7.42367 11.79801,-6.71476 0.64796,1.94517 3.55369,1.37252 8.28443,-1.63267 5.43613,-3.4533 8.1557,-6.94827 14.94141,-19.20153 7.03977,-12.71203 9.69972,-15.8886 19.86183,-23.7194 4.75333,-3.66286 11.75288,-9.13147 15.55457,-12.15249 5.47828,-4.35332 6.7942,-5.04143 6.3436,-3.31717 -0.34903,1.33556 -0.10806,2.17557 0.62408,2.17557 2.27197,0 12.97636,-4.57183 13.35321,-5.70314 0.58911,-1.76851 -10.28662,-3.5947 -18.33131,-3.07807 -6.17604,0.39662 -8.36345,1.11361 -16.02694,5.25335 -18.00839,9.72796 -31.01712,20.22099 -55.85744,45.05542 -17.87619,17.87196 -31.95842,29.85516 -39.07611,33.25162 -2.31801,1.10611 -4.06373,3.42472 -6.87569,9.13205 -5.46526,11.09263 -15.22282,27.01189 -24.4853,39.94723 -8.75389,12.22507 -10.63279,16.4541 -3.82986,8.62024 2.33749,-2.69172 9.42497,-10.30849 15.74995,-16.92615 z m 222.99937,109.47441 c 26.76381,-5.56628 29.71823,-5.98074 48.49986,-6.80368 21.08966,-0.92408 23.77733,-1.47239 36.4644,-7.43905 4.06484,-1.91167 5.65902,-2.2593 6.22391,-1.35719 0.98329,1.57026 7.86429,-2.1798 21.3115,-11.61451 5.49999,-3.85884 13.27759,-8.79022 17.28355,-10.95861 6.0366,-3.26755 7.8834,-3.82993 10.78712,-3.28482 3.10037,0.58202 4.01841,0.2042 7.97761,-3.28314 10.97377,-9.66595 20.34373,-14.13422 29.70154,-14.16386 2.78254,-0.009 3.74998,0.40298 3.74998,1.59618 0,1.01826 0.55016,1.39679 1.5,1.03206 2.78793,-1.07054 1.52501,0.15388 -5.64453,5.47242 -8.30096,6.15786 -7.48499,8.00689 0.95403,2.16191 8.17,-5.65866 8.19049,-5.66711 8.19049,-3.37866 0,1.30392 -3.0753,4.57787 -8.74997,9.31518 -12.91096,10.77824 -22.05307,19.69214 -35.97101,35.07306 L 648.68072,520 l -158.32798,0 28.49992,-5.72787 z M 519.10265,310.57 c 0.9625,-0.25169 2.5375,-0.25169 3.49999,0 0.9625,0.2517 0.175,0.45763 -1.74999,0.45763 -1.92499,0 -2.71249,-0.20593 -1.75,-0.45763 z"
     id="path12"
     style="fill:#003189;fill-opacity:1;stroke:none"
     inkscape:connector-curvature="0" />
  <path
     d="m 985.58435,272.51618 c -4.36729,-0.66056 -2.11359,-2.28362 3.17099,-2.28362 5.30149,0 8.09598,-2.03652 8.09598,-5.90005 0,-1.81652 -0.395,-2.11468 -2.0889,-1.5767 -1.46129,0.46412 -2.50169,0.0736 -3.46299,-1.29974 -0.89779,-1.28258 -3.06859,-2.18809 -6.26178,-2.61197 -5.70398,-0.75715 -14.94146,-6.26804 -13.28506,-7.92555 0.5656,-0.566 3.50229,-1.23439 6.52588,-1.4853 5.21089,-0.43242 5.55559,-0.63246 6.61288,-3.83819 0.7913,-2.39945 1.8917,-3.56466 3.78769,-4.01077 1.4697,-0.34583 3.79729,-1.66594 5.17229,-2.93357 1.37499,-1.26765 5.87497,-4.50778 9.99997,-7.20029 6.9349,-4.52665 11.2313,-9.35187 9.6953,-10.88883 -1.6182,-1.61932 -16.63368,-3.38153 -23.69526,-2.78087 -8.20358,0.69778 -22.33834,3.67961 -28.24992,5.95951 -6.06798,2.34021 -4.29419,0.30225 4.04289,-4.64494 11.25457,-6.6784 32.91969,-12.90523 44.90149,-12.90523 4.6484,0 20.2027,3.67603 22.0554,5.21245 3.6292,3.00955 -0.3293,13.57433 -7.0609,18.84516 l -2.8111,2.20098 2.3111,2.46601 2.311,2.46599 -2.3608,1.91632 c -1.2984,1.05398 -3.077,1.91633 -3.9524,1.91633 -0.8754,0 -3.0428,1.40755 -4.8166,3.12788 -2.73,2.64775 -3.0826,3.50264 -2.2975,5.56918 0.608,1.60019 0.5485,3.15002 -0.1726,4.49841 -0.6736,1.25938 -0.8423,4.12282 -0.4352,7.38372 0.8312,6.65701 -0.3683,9.04186 -5.2267,10.39202 -3.6026,1.00117 -16.79337,1.19557 -22.50515,0.33166 z"
     id="path14"
     style="fill:#7f7f7f;stroke:none"
     inkscape:connector-curvature="0" />
</svg>
