<svg xmlns="http://www.w3.org/2000/svg" width="1538" height="530"><path fill="#fff" d="M0 0h1538v520H0z"/><path d="M880.1 520l2.333-6.033c3.953-10.9 8.054-19.217 13.971-28.343 6.269-9.667 20.067-23.907 25.807-26.632 7.054-3.35 15.824-4.53 26.669-3.587 9.312.81 37.925 5.488 49.471 8.09 8.788 1.98 21.655 2.169 27.71.408 11.665-3.394 18.577-9.954 21.856-20.747 2.517-8.28 2.493-15.804-.066-20.823-3.436-6.74-2.85-8.493 5.5-16.479 4.125-3.944 7.506-7.591 7.513-8.105.035-2.67-5.68-13.39-7.152-13.414-.901-.015-2.682-.872-3.958-1.906l-2.319-1.879 4.958-2.534c6.77-3.461 11.792-8.843 11.792-12.639 0-1.64-1.427-5.659-3.17-8.932-3.346-6.28-4.24-12.282-2.357-15.804 1.245-2.327 3.39-3.306 13.933-6.353 8.86-2.561 12.062-5.157 13.325-10.8 1.08-4.827.55-7.93-2.349-13.73-2.36-4.721-17.73-28.269-22.208-34.022-6.016-7.73-13.345-21.086-15.513-28.27-2.137-7.08-2.151-7.481-.592-16.634 3.296-19.35 1.369-35.39-8.01-66.67-6.97-23.246-8.841-28.89-11.024-33.239-3.946-7.863-3.419-9.703 4.677-16.33 3.875-3.173 7.475-6.572 8-7.554 2.445-4.57-.288-13.377-4.92-15.858-2.94-1.574-4.576-.493-7.56 4.994-2.262 4.158-3.148 4.945-5.569 4.945-3.94 0-4.63-1.652-2.114-5.058 2.933-3.97 2.7-4.606-1.907-5.225-3.45-.463-5.272-1.81-12.75-9.426-10.025-10.21-16.76-14.914-30.185-21.087-6.155-2.83-8.298-4.169-6.04-3.774 1.925.337 8.73.875 15.125 1.196 18.553.931 23.062-1.52 27.386-14.885 2.936-9.075 4.344-13.271-2.393-19.607L983.246 0H1538v520H880.1z" fill="#e2011c"/><path d="M407.033 520c-4.026-.423-7.517-.606-7.758-.847-.423-.424 4.124-3.347 24.95-16.039 6.679-4.07 9.427-6.253 8.5-6.749-.755-.403-6.586-1.043-12.958-1.42-9.467-.562-12.21-.401-15 .88-1.878.864-9.372 3.133-16.653 5.044-18.06 4.74-24.137 7.993-29.936 16.027L356.012 520H0V0h706.339l-13.686 8.934c-7.534 3.74-16.29 8.936-19.458 11.545-10.743 8.85-25.21 28.985-28.823 40.114-1.328 4.091-2.534 5.624-6.608 8.405-6.217 4.243-13.663 12.334-19.83 21.546-8.373 12.508-24.332 40.697-27.468 48.517-4.864 12.132-4.422 21.37 2.757 57.623 3.16 15.96 6.58 32.171 7.6 36.024 1.02 3.852 2.135 10.382 2.479 14.51.615 7.37 1.094 8.965 5.408 18.011 1.182 2.477 2.147 5.287 2.145 6.246-.002.958.897 2.305 1.997 2.992 1.141.713 2 2.334 2 3.773 0 1.734 2.278 5.024 7.28 10.516 11.445 12.567 19.72 24.347 19.72 28.073 0 3.06-4.488 3.85-11.72 2.065-8.452-2.087-15.367-6.596-26.03-16.972-4.537-4.416-8.25-7.384-8.25-6.597 0 .787 3.111 4.892 6.914 9.123 7.562 8.414 8.748 10.71 7.113 13.767-1.43 2.675-4.911 3.454-9.62 2.153-5.434-1.502-8.618.591-7.722 5.075.55 2.75.4 3.074-1.155 2.478-3.072-1.18-9.794-2.531-15.838-3.184-5.553-.6-5.964-.843-9.325-5.525-2.547-3.548-4.53-5.182-7.191-5.93-9.923-2.786-34.604-7.081-51.175-8.905-29.129-3.207-36.145-3.459-50.1-1.798-10.716 1.275-13.63 2.024-19.5 5.008-10.39 5.283-28.4 21.837-28.4 26.104 0 2.001 3.967 1.295 8.5-1.514 13.757-8.524 60.879-20.554 84-21.445 11.457-.441 10.836.108-2.91 2.572-3.802.681-12.802 2.987-20 5.124-7.2 2.137-19.615 5.43-27.59 7.317-7.975 1.888-16.975 4.321-20 5.408l-5.5 1.975 8.5.093c43.31.473 92.681 14.223 112.773 31.408 8.645 7.394 11.811 8.29 24.528 6.952 17.428-1.836 39.985-10.156 49.878-18.397 4.293-3.577 7.824-4.999 7.818-3.148-.011 3.268-5.698 20.839-8.156 25.198-2.74 4.86-2.895 5.56-1.468 6.604.877.642 1.343 1.42 1.035 1.727-.307.308.375.857 1.516 1.22 3.282 1.042 2.456 2.05-2.782 3.393-5.106 1.31-9.143 3.602-9.143 5.193 0 .52.702.944 1.56.944 2.568 0 .651 1.796-2.704 2.533-2.298.505-2.757.918-1.739 1.563.998.632 1.035.88.133.892-.687.008-1.25 1.031-1.25 2.273 0 1.545-.945 2.676-3 3.586-5.006 2.218-3.603 3.415 3.25 2.773 3.438-.322 5.575-.319 4.75.007-.825.326-6.45 2.872-12.5 5.658-6.05 2.787-13.925 6.094-17.5 7.35-4.046 1.422-6.631 2.92-6.848 3.968-.35 1.685 1.53 1.63 6.256-.186.876-.336 1.582-.225 1.568.246-.013.472-10.428 6.486-23.145 13.366-12.716 6.88-24.615 13.972-26.442 15.76-1.827 1.79-4.164 3.253-5.195 3.253-1.036 0-2.39 1.138-3.033 2.548-1.942 4.266-1.54 4.785 3.09 3.99 6.878-1.182 10.031-1.117 10.488.216.247.721-.402 1.251-1.533 1.251-1.078 0-2.499.649-3.156 1.442-.658.792-2.394 1.58-3.86 1.75-1.703.199-3.387 1.457-4.676 3.495-1.107 1.752-2.913 3.416-4.013 3.7-1.1.282.475.33 3.5.104 44.98-3.347 53.36-5.013 71.5-14.211 15.475-7.848 31.54-19.513 42.968-31.202 3.283-3.358 6.32-6.105 6.75-6.105 1.554 0 .71 5.613-1.584 10.543-3.97 8.533-12.302 16.394-29.428 27.764-8.638 5.735-17.957 11.137-20.707 12.003-8.592 2.708-22.462 5.592-37.004 7.694-47.373 6.85-65.502 12.046-83.46 23.919-3.005 1.987-6.16 3.495-7.01 3.35-.851-.144-3.117 1.081-5.036 2.722-5.397 4.616-1.487 3.835 9.707-1.938 11.47-5.916 16.849-6.848 7.804-1.353C468.262 515.777 459.808 520 451.53 520h-44.497zm-58.847-58.006c1.798-.752 7.746-4.084 13.218-7.405 5.472-3.322 11.974-6.958 14.45-8.08 2.474-1.123 9.449-4.276 15.499-7.007 12.68-5.723 31.29-11.122 32.36-9.39.376.609 3.149 1.28 6.162 1.49 4.217.295 4.96.566 3.228 1.178-1.238.437-2.25 1.192-2.25 1.678 0 1.81 9.359 1.267 13.299-.772 1.545-.799 5.034-1.717 7.755-2.04 3.382-.4 4.946-1.044 4.946-2.035 0-1.131.859-1.304 3.913-.788 4.203.71 13.243-1 37.587-7.11 16.486-4.138 28.973-8.303 39.94-13.321l7.94-3.634-7.94-5.088c-19.353-12.402-38.785-20.018-81.44-31.917-7.425-2.07-13.95-4.213-14.5-4.76-.663-.66-.327-.752 1-.276 4.259 1.528 7.5 1.821 7.5.678 0-1.483-3.22-2.679-9.548-3.545-5.787-.792-9.522-2.52-5.502-2.544 6.222-.04-4.475-3.985-16.45-6.068-8.866-1.542-9.377-1.872-5.673-3.667 3.227-1.564 6.698-7.482 5.784-9.864-.775-2.021-1.742-1.813-6.537 1.41-9.245 6.213-17.725 16.388-22.49 26.986-2.72 6.045-1.778 6.6 12.214 7.198 11.458.49 11.64.534 8.702 2.112-1.65.887-4.96 1.913-7.355 2.28-8.135 1.248-12.654 5.11-8.62 7.37 1.197.67.722 1.235-2.22 2.639-3.296 1.573-3.527 1.906-1.944 2.793.99.554 3.865.842 6.391.641 3.51-.28 5.113.099 6.803 1.605l2.211 1.97-4.436 2.816c-2.44 1.548-5.2 4.26-6.133 6.024-.933 1.764-4.284 5.962-7.447 9.329-3.162 3.367-5.75 6.849-5.75 7.738 0 .89-4.612 5.31-10.25 9.822-15.16 12.135-21.75 18.805-21.75 22.017 0 1.7-.857 3.23-2.36 4.215-4.733 3.104-7.203 6.689-4.608 6.689.568 0 2.503-.615 4.301-1.367zm116.98-11.693c3.746-.5 8.085-1.663 9.641-2.583l2.83-1.672-4.826-2.406-4.825-2.407-4.817 1.953a472.093 472.093 0 0 1-8.151 3.215c-7.378 2.793-8.34 6.548-1.415 5.518a985.398 985.398 0 0 1 11.562-1.618zm-169.313-45.503c22.285-23.316 38.01-37.148 57.972-50.99 6.783-4.704 11.562-7.424 11.798-6.715.648 1.945 3.554 1.372 8.284-1.633 5.436-3.453 8.156-6.948 14.942-19.201 7.04-12.712 9.7-15.889 19.862-23.72a1618.207 1618.207 0 0 0 15.554-12.152c5.478-4.354 6.794-5.042 6.344-3.317-.35 1.335-.108 2.175.624 2.175 2.272 0 12.976-4.572 13.353-5.703.59-1.768-10.287-3.595-18.331-3.078-6.176.397-8.364 1.114-16.027 5.253-18.009 9.728-31.017 20.221-55.858 45.056-17.876 17.872-31.958 29.855-39.076 33.251-2.318 1.106-4.064 3.425-6.876 9.132-5.465 11.093-15.222 27.012-24.485 39.948-8.754 12.225-10.633 16.454-3.83 8.62 2.338-2.692 9.425-10.309 15.75-16.926zm223 109.474c26.763-5.566 29.718-5.98 48.5-6.804 21.09-.924 23.777-1.472 36.464-7.439 4.065-1.911 5.659-2.259 6.224-1.357.983 1.57 7.864-2.18 21.311-11.614 5.5-3.86 13.278-8.79 17.284-10.959 6.036-3.267 7.883-3.83 10.787-3.285 3.1.582 4.018.204 7.978-3.283 10.973-9.666 20.343-14.134 29.701-14.164 2.783-.009 3.75.403 3.75 1.596 0 1.019.55 1.397 1.5 1.033 2.788-1.071 1.525.153-5.644 5.472-8.301 6.158-7.485 8.007.954 2.162 8.17-5.659 8.19-5.667 8.19-3.379 0 1.304-3.075 4.578-8.75 9.315-12.91 10.779-22.053 19.692-35.97 35.073L648.68 520H490.353l28.5-5.728zm.25-203.702c.962-.252 2.537-.252 3.5 0 .962.252.175.458-1.75.458s-2.713-.206-1.75-.458z" fill="#003189"/><path d="M985.584 272.516c-4.367-.66-2.113-2.283 3.171-2.283 5.302 0 8.096-2.037 8.096-5.9 0-1.817-.395-2.115-2.089-1.577-1.46.464-2.501.073-3.463-1.3-.897-1.283-3.068-2.188-6.261-2.612-5.704-.757-14.942-6.268-13.285-7.925.565-.566 3.502-1.235 6.525-1.486 5.211-.432 5.556-.632 6.613-3.838.792-2.4 1.892-3.565 3.788-4.01 1.47-.347 3.797-1.667 5.172-2.934 1.375-1.268 5.875-4.508 10-7.2 6.935-4.527 11.232-9.352 9.696-10.89-1.619-1.619-16.634-3.38-23.696-2.78-8.203.698-22.338 3.68-28.25 5.96-6.068 2.34-4.294.301 4.043-4.646 11.255-6.678 32.92-12.905 44.902-12.905 4.648 0 20.202 3.676 22.055 5.213 3.63 3.01-.33 13.574-7.06 18.845l-2.812 2.2 2.311 2.467 2.311 2.466-2.36 1.916c-1.299 1.054-3.078 1.916-3.953 1.916s-3.043 1.408-4.817 3.128c-2.73 2.648-3.082 3.503-2.297 5.57.608 1.6.548 3.15-.173 4.498-.673 1.26-.842 4.123-.435 7.384.831 6.657-.368 9.041-5.227 10.392-3.602 1-16.793 1.195-22.505.331z" fill="#7f7f7f"/></svg>